<svg width="22" height="24" viewBox="0 0 22 24" fill="none" xmlns="http://www.w3.org/2000/svg">
<path d="M10.9994 24C12.7338 24 14.1407 22.657 14.1407 21H7.85797C7.85797 22.657 9.26489 24 10.9994 24ZM21.5765 16.9823C20.6278 16.0092 18.8526 14.5453 18.8526 9.75C18.8526 6.10781 16.1772 3.19219 12.5698 2.47688V1.5C12.5698 0.671719 11.8666 0 10.9994 0C10.1321 0 9.42891 0.671719 9.42891 1.5V2.47688C5.8215 3.19219 3.14615 6.10781 3.14615 9.75C3.14615 14.5453 1.37092 16.0092 0.422175 16.9823C0.127532 17.2847 -0.00309279 17.6461 -0.000637435 18C0.00476435 18.7687 0.636773 19.5 1.5757 19.5H20.423C21.3619 19.5 21.9944 18.7687 21.9993 18C22.0018 17.6461 21.8712 17.2842 21.5765 16.9823Z" fill="#191847"/>
</svg>
