<svg width="22" height="21" viewBox="0 0 22 21" fill="none" xmlns="http://www.w3.org/2000/svg">
<path d="M21.6399 7.03636L21.9907 5.16136C22.0551 4.81659 21.7774 4.5 21.4106 4.5H17.7369L18.4549 0.661359C18.5194 0.316594 18.2417 0 17.8748 0H15.8795C15.7412 2.39844e-06 15.6073 0.0464528 15.5012 0.131218C15.3952 0.215982 15.3237 0.333659 15.2994 0.463641L14.5443 4.5H9.70062L10.4187 0.661359C10.4832 0.316594 10.2055 0 9.83861 0H7.84329C7.70497 2.39844e-06 7.57105 0.0464528 7.465 0.131218C7.35894 0.215982 7.2875 0.333659 7.26319 0.463641L6.50807 4.5H2.6239C2.48557 4.5 2.35166 4.54645 2.2456 4.63122C2.13954 4.71598 2.0681 4.83366 2.04379 4.96364L1.69302 6.83864C1.62854 7.18341 1.90624 7.5 2.27312 7.5H5.94683L4.82438 13.5H0.94021C0.801885 13.5 0.66797 13.5465 0.561913 13.6312C0.455857 13.716 0.384418 13.8337 0.360108 13.9636L0.00933576 15.8386C-0.0551419 16.1834 0.222559 16.5 0.589438 16.5H4.26314L3.54505 20.3386C3.48057 20.6834 3.75827 21 4.12515 21H6.12047C6.25879 21 6.39271 20.9535 6.49877 20.8688C6.60482 20.784 6.67626 20.6663 6.70057 20.5364L7.45574 16.5H12.2994L11.5813 20.3386C11.5168 20.6834 11.7944 21 12.1614 21H14.1567C14.295 21 14.4289 20.9535 14.535 20.8688C14.6411 20.784 14.7125 20.6663 14.7368 20.5364L15.4919 16.5H19.3761C19.5144 16.5 19.6483 16.4535 19.7544 16.3688C19.8605 16.284 19.9319 16.1663 19.9562 16.0364L20.307 14.1614C20.3714 13.8166 20.0937 13.5 19.7269 13.5H16.0532L17.1756 7.5H21.0598C21.1981 7.5 21.332 7.45355 21.4381 7.36878C21.5441 7.28402 21.6156 7.16634 21.6399 7.03636ZM12.8606 13.5H8.01698L9.13943 7.5H13.9831L12.8606 13.5Z" fill="#F5F6F9"/>
</svg>
